<svg xmlns="http://www.w3.org/2000/svg" id="Layer_1" viewBox="0 0 957 873"><defs><style>.cls-7{fill:#5c6c72}.cls-15{fill:#f6bcb7}.cls-32{fill:#f8c48f}.cls-51{fill:#57656f}.cls-54{fill:#586668}.cls-73{fill:#616f74}.cls-86{fill:#f3e1c3}.cls-93{fill:#030203}.cls-97{fill:#5a6469}.cls-123{fill:#505d65}.cls-141{fill:#5a6b6f}.cls-165{fill:#411c0d}.cls-183{fill:#5e686f}.cls-186{fill:#050403}.cls-189{fill:#5a6c70}.cls-210{fill:#dd985f}.cls-213{fill:#e4dac9}</style></defs><path d="m123 173 7 4c-1-32-5-66 4-97q-7 49-2 97c-1 5-7-1-9-4" style="fill:#58646a"/><path d="M523 863c-24 14-58 10-84 3q2-2 5 0c28 7 51 7 79-3" style="fill:#455456"/><path d="M362 31c-16-7-30-4-46 1 13-7 33-11 46-1" style="fill:#48565c"/><path d="M457 15q-19-9-40-4 22-8 40 4" style="fill:#5a646b"/><path d="M541 12v1q-17-3-35 2c6-6 26-3 35-3" style="fill:#4d555f"/><path d="M14 602q-2 0-2-4c0-7-2-24 2-29z" style="fill:#7a8990"/><path d="M730 836q-16 6-33 5c10-2 23-1 33-5" style="fill:#5a656c"/><path d="M20 497q-5 15 4 28c-10-10-8-17-4-29z" style="fill:#566970"/><path d="M68 200c-4-6-4-17 0-23z" style="fill:#5b6b71"/><path d="M832 151v-37q2 2 1 6v26q1 3-1 5" style="fill:#c4cdd0"/><path d="M200 813q-12-2-22-10z" style="fill:#556065"/><path d="M604 865q-15 4-30-1 13 2 25 1 3-2 5 0" style="fill:#b1babd"/><path d="M125 751q-11 0-21-8z" class="cls-123"/><path d="M15 564q1-12 7-21z" style="fill:#5c6c6f"/><path d="M2 433H0c-1-1 3-17 6-19z" style="fill:#516469"/><path d="M908 675q-6 10-15 13z" style="fill:#637074"/><path d="M193 2h-15c3-3 12-3 15 0" style="fill:#93a4a7"/><path d="M889 691c-8 3-6 9-7 16l1-14q2-3 6-2" style="fill:#58656a"/><path d="M832 114v2l-2-24z" style="fill:#b0b8bb"/><path d="M925 558q9-13 6-30c3 8 3 26-6 30" style="fill:#5a696d"/><path d="M889 217c3-10 6-17 4-29h1c2 12 1 19-5 29" style="fill:#58656b"/><path d="M89 733q-7-4-12-12z" style="fill:#4d5f5c"/><path d="m790 5-21-1c9-1 13-1 21 1" style="fill:#48565f"/><path d="M79 163q8-3 17-2c9 1 4-1 3 2q-10-2-20 0" style="fill:#5d696e"/><path d="m636 26-21-1q11-2 21 1" class="cls-141"/><path d="M325 851q-9 0-16-4c0-2 13 4 16 4" style="fill:#596066"/><path d="M569 863q-9 0-16-5z" class="cls-189"/><path d="M758 821q-6 5-13 8 6-5 13-8" style="fill:#516165"/><path d="M615 25h1l-16 5c6-3 7-4 15-5" style="fill:#4f5e66"/><path d="M832 151q1 10-2 18z" style="fill:#bac2c5"/><path d="m804 15-11-9c6 3 7 4 11 9" style="fill:#4d5f64"/><path d="M649 31c-4 1-9-4-13-5z" style="fill:#566265"/><path d="M247 21v1q-6-1-11-6z" style="fill:#505e63"/><path d="M140 763c-4-2-3-8-7-11 5 1 5 8 7 11" class="cls-123"/><path d="M55 679c-4-2-1-9-2-13z" style="fill:#6d7c83"/><path d="m769 4-13 3c2-3 9-2 13-3" style="fill:#607277"/><path d="M67 708q-5-4-6-11z" style="fill:#56636a"/><path d="M496 19q-5 4-11 4 5-3 11-4" style="fill:#616e70"/><path d="M569 29q-5-2-8-8 6 3 8 8" style="fill:#59656e"/><path d="M387 847q-4 4-12 4z" style="fill:#526062"/><path d="m47 459-8 8q3-5 8-8" style="fill:#60757a"/><path d="M146 773q-5-4-6-10 4 4 6 10" style="fill:#63737b"/><path d="M697 841h7c-3 2-12 2-15 0z" style="fill:#a5b1b4"/><path d="M669 45v1q-5-2-8-8z" style="fill:#525f65"/><path d="M752 8q-9 5-20 7 9-5 20-7" style="fill:#526169"/><path d="m116 169-11-5c7 2 6 3 11 5" style="fill:#5b6a6b"/><path d="M772 810q-3 6-9 7z" style="fill:#697579"/><path d="M894 188h-1l-3-11c4 6 3 5 4 11" style="fill:#6a7077"/><path d="M38 650q-4-3-7-8 5 3 7 8" class="cls-73"/><path d="m59 694-3-11q5 6 3 11" style="fill:#636e75"/><path d="M223 11q-5 0-10-4z" class="cls-141"/><path d="m845 766 8-7q-2 5-8 7" style="fill:#6b777c"/><path d="M714 23q-5 4-10 5z" style="fill:#4d5d64"/><path d="m88 275 7-8q-2 6-7 8" style="fill:#4a5963"/><path d="M27 483q1-5 6-9z" style="fill:#4f6367"/><path d="M24 445c7 1 6 0 8-5 1 8-2 7-8 5" style="fill:#5f6e73"/><path d="M69 206c3 0 4 8 5 10z" style="fill:#5c676f"/><path d="M483 24c-6 3-16 1-20-5q9 7 20 5" style="fill:#4a5559"/><path d="M633 856q-8 6-18 6z" style="fill:#5b646a"/><path d="m395 22-7 7c0-3 5-6 7-7" style="fill:#656e77"/><path d="M739 832q-3 3-8 4 2-3 8-5z" style="fill:#677170"/><path d="M20 497q1-5 4-9-1 5-4 9" style="fill:#495b5f"/><path d="M547 855q-4-1-9 1c-1-3 8-4 9-1" style="fill:#5f6560"/><path d="m690 36-9 5q4-4 9-5" style="fill:#586565"/><path d="m672 838-9-1c2-4 7 0 9 1" class="cls-189"/><path d="M294 840c3 1 9 2 9 5z" style="fill:#68747c"/><path d="M421 859q-5 0-8-4z" class="cls-73"/><path d="M921 655h-1l4-9q1 5-3 9" style="fill:#69767b"/><path d="m136 66 3-10q0 6-3 10" style="fill:#6e7a80"/><path d="M877 167h-12z" style="fill:#7b8f99"/><path d="m772 810 6-7q-1 5-6 7" style="fill:#737f84"/><path d="m255 25-8-3v-1z" style="fill:#535d62"/><path d="m231 14-8-3q6 0 8 3" style="fill:#4d5d5f"/><path d="M152 781q-4-2-5-7 4 3 5 7" style="fill:#51626a"/><path d="M175 801q-5-1-7-5z" style="fill:#5a6d6f"/><path d="M956 433c0 2 3 9-1 8q2-3 0-8z" style="fill:#606e72"/><path d="m549 15-8-2v-1q6 0 8 3" style="fill:#57636b"/><path d="M316 32q-3 4-8 4z" style="fill:#606d73"/><path d="M356 854q-5 3-11 0z" style="fill:#8f9da2"/><path d="M805 780q-5 3-10 0z" style="fill:#afb8bd"/><path d="m787 790 4-7q0 5-4 7" style="fill:#6a7777"/><path d="m290 45-7-4c3-1 6 4 7 4" style="fill:#707b7f"/><path d="m276 828-6-5h1z" style="fill:#62777b"/><path d="M277 37h-2q-4 3-3-2l-2-2z" style="fill:#5b6b72"/><path d="m172 4-7 4z" style="fill:#555b64"/><path d="m55 452 6-5c1-8 0-21 4-29l-3 30q-3 4-7 4" style="fill:#505b68"/><path d="M69 402q2-12 7-25 2 2 0 5z" style="fill:#58686c"/><path d="M924 558c0 3-5 3-5 4-1 3 5 10 4 14l-6-13c0-3 5-4 7-5" style="fill:#586467"/><path d="M271 823h-1c-4-4-9-10-15-10 4-7 13 7 16 10" style="fill:#566465"/><path d="M898 467c-11-6-8-17-8-28 1 14-1 17 8 28" style="fill:#6f7b82"/><path d="M871 365q3 1 3 3l3 11z" style="fill:#616e6e"/><path d="M887 412c-4 0-3-8-4-12z" style="fill:#515e62"/><path d="M16 441q-7-1-12-6 7 2 12 6" style="fill:#57616a"/><path d="M65 418q0-7 3-12z" style="fill:#627177"/><path d="m79 224-5-9z" style="fill:#555f68"/><path d="m85 357-4 9q1-6 4-10z" style="fill:#5e6d70"/><path d="M871 364q-3-3-3-8z" style="fill:#565f61"/><path d="m92 241-6-7q5 3 6 7" class="cls-51"/><path d="m890 439-1-11q2 6 1 11" style="fill:#7f868a"/><path d="m872 281-6-6q5 2 6 6" style="fill:#5d6c6e"/><path d="M28 528q2 6-3 8 3-2 3-8" style="fill:#545e65"/><path d="M861 341q-3-2-4-7 4 4 4 7" style="fill:#55686c"/><path d="m398 846-7-1q4-4 7 1" style="fill:#909b9b"/><path d="M432 264c20-27 32-61 40-93q2-3 5-1 2 18 8 34v2q17 54 58 91c-64 142 160 144 98 13l-3 1-11-10v-3a69 69 0 0 0-52-8c43-24 104 21 97 70-1 6-2 18-7 20-5 26-51 43-72 32-2 0-11-2-12-1 51 79 162 77 245 64l1 1c1 10 8 82 10 89 3 4 30 0 32-4l-8-91q1-7 12-4 5-5 8 4c17 19 36 45 36 72-1 12-7 7-12 2q-12-6-11 5c4 21 8 43 1 64-4 10-16 46-25 21-22-30 8 48-38 82-5 3-25 22-30 13q-2-28-10-13-19 44-63 65c-6 3-30 13-32 3 13-57-24 26-87 30l-1 2c-4-1-29 3-30-2-5 1-5-6-1-9 15-54-78 83-203-11q-11-11-8 15-1 7-9 7c-107 0-117-86-122-33-45-4-90-40-103-84q-3-9-6-4-7 19-16 9c-26-26-38-63-37-99-6-20-19 28-27 2q-10-27-6-56c-2-7-1-8 1-14 9-10 21-34-4-18h-3c-20-13 53-92 42-47l-8 63h1l-2 20c5 2 27 6 30 4l5-28h1l10-60c3 0 25 3 30 5q2-4 3 0c66 15 190-4 216-72 41-13 53-61 37-97-5-7-5-8 3-12q17-13 29-30Z" style="fill:#fcfcfc"/><path d="M905 503c7 8 18 38 10 46-4 4-8-4-12-6s-8-1-8 5c19 42 32 82-2 122-12 13-8 6-12-6s-6-15-11-10-1 27-1 34c-2 37-21 70-60 77-16 3-9 0-9-10 0-4-2-13-7-10s-13 29-17 35a96 96 0 0 1-91 46c-19 0 0-10-3-22-9 1-15 10-21 16-31 27-65 39-106 24 26-43-11-9-26 0-39 22-86 15-122-9s-18-16-24-17c-11-1 3 18 2 19-49 11-96-8-126-47-4-4-8-10-14-10q-1 10 4 19c5 9 4 3 3 5-56 7-100-28-113-82-1-3-3-9-7-8-7 2 0 26-4 24-43-12-65-58-61-100 6-41-15-18-15 5-70-62 35-150-14-125 4-7 19-10 15 3-2 5-12 17-12 21 5 14-2 26 1 42 13 60 13 8 31 15 4 3 2 13 3 18 3 33 15 68 42 89 4 1 6-19 13-14q27 72 103 89c4-1-2-21 9-19q45 50 113 51c18 1 2-19 13-26 63 51 142 48 206 0 8 3 6 13 5 18l-3 4 2 4h31c19-7 44-13 60-28 6-5 19-21 25-23 12-5 4 19 4 22 0 5 14 1 18 0q40-15 64-52c10-18 20-41 23-4 2 5 8-1 10-2 71-35 28-129 58-93 1 2 3 9 6 8 24-30 18-62 15-97q5-6 12-2c5 3 9 13 11 0 1-12-6-28-11-39" style="fill:#e6d9ca"/><path d="M73 455c6-8 2-26 10-35q-5 58-14 114l9-73c-8-4-10 1-16 4z" style="fill:#debe9e"/><path d="M406 652c44 16 78 18 125 3 22 8-40 43-48 44-9 2-22 2-31-2-5-3-10-11-15-12s-10 1-16-4c-5-4-24-25-15-30" style="fill:#e7dacd"/><path d="M627 454c45 20 101 36 148 24q18 1 34-3h14c3-1 3-5 4 1-64 9-144 17-200-22" style="fill:#f5dcc3"/><path d="M253 475c-23 9-81 9-106 0q54 7 106 0" style="fill:#f7e2c6"/><path d="M336 438v1q-36 29-83 36c2-4 5-2 9-3q30-7 58-24 7-6 16-10" style="fill:#f4e0c7"/><path d="M144 475c-12 1-21-5-32-2v-1q-1-2 1-5c3 5 7 3 11 3 6 4 15 2 20 5" style="fill:#f3e0c7"/><path d="m112 473-8 57c3-18 3-43 8-58z" class="cls-32"/><path d="M421 465c-8 0-21-14-19-22 7-14 11 31 53 0 18-14 6-16-5-28-40-30 23-43 44-30 21 12-1 30-13 38q-11 7-2 16c11 14 37 24 51 7l6-5c9 6-5 19-11 22l-11 5c-15 54-72 52-87-2z" style="fill:#040303"/><path d="M421 465c-9 3-27-21-17-25s6 4 8 6c9 9 13 6 23 4q10-2 19-9c2-7 11-2 9-12-3-7-9-4-14-14-60-49 115-47 32 9-3 0 14-12 14-14 33-34-65-40-56-8 2 8 25 22 26 27-1 20-40 36-53 19-12-20-15 9 9 17" style="fill:#dedfde"/><path d="M481 423v1c-21 11 32 45 49 22-17 30-76-15-49-23" style="fill:#c5c6c5"/><path d="M470 466q17-1 32 9c-13 27-45 30-61 3 6-7 19-12 29-12" style="fill:#ec847f"/><path d="M493 401c-3 3-13 3-14 7s1 3 1 4c0 2-5 6-6 7-10 3-11-6-16-10-44-22 45-29 35-8" style="fill:#ec9595"/><path d="M448 397c0-6 17-8 17-2s-14 3-17 2" style="fill:#fcecee"/><path d="M178 2c15-5 55 12 69 20q14 4 25 13c3 3-3 10-7 10s-14-7-14-10q-6 0-9-5c-20-1-47-24-67-12q-6 9-14 7c4 8-2 14-8 19l-12 69q4 29 1 60l12 62q5 18-7 18l-7-25h-1c1-21-25 17-11 23 2 3-1 10-3 13-3 4 3 14 7 13 4-4 12-1 6 4-2 17-17 22-13 45-8 42-5 89-14 130q-3 52-12 102c-3 3-29-1-31-5l10-75 1-1v-13l5-42q-1-12 4-24l1-9-3 5 1 2c-6 19-8 40-14 59q2 3-3 4l-8 6v3c-10 7-39 41-24 50 7-7 20-8 14 5-25 34-33 84-2 116 3-27 25-39 19-2-4 43 16 85 58 98v-14c1-12 10-12 14-2 12 52 54 89 109 83-21-46 15-14 27 4 27 27 68 37 105 29-28-69 69 81 173-11 20-10 9 11 3 19 43 16 85-6 114-37 18-11 12 8 6 17 50 10 97-27 109-73 10-19 18 2 13 14 55-4 71-56 67-102 3-26 19 0 18 12 35-31 33-80 11-118-6-16 3-20 15-8 6 4 6-8 6-11q-2-18-12-34l-3-1q-8-16-21-30v-3l-5-11q-2-33-12-65v-6h-2l-8-23q1 6-2 7 5 28 7 57l-1 1c2 44 9 88 11 132-1 3-30 8-32 4a2621 2621 0 0 1-19-267l-3-1c-27-42-66-80-105-112q-4-6 2-12 10-3 21 2c21 4 18 14-1 10l43 36c13-51 20-108 5-159 5-42-96 47-101 60q17-8 36-13c34-3 18 3-1 11l-3 3q-21 8-39 18l-5 1c-5 3-15 9-14-2 19-42 74-91 120-101 44 8 25 163 12 194l13 14c18-57 25-127 10-186-13-103-154 20-193 50 4 3 14 13 5 16s-34-8-39-11l-1-2a396 396 0 0 0-239 12c-5-2-3-11 2-10q4-5 8-5-3-10-15-16c-2-3-1-11 3-11 6 2 18 18 25 19 2 1 17-3 17-5 0-3-2-11-4-14-3-2-6-23-4-25s5 6 5 8l11 27-1 1q25-5 49-7c3-5-4-36 3-34l7 32h54l2-1q4-18 6-38c12-3 0 34 2 41l62 8c6-7 12-29 15-37 14-17-2 36-3 39l11 5c2 6 17-14 21-16q8-11 20-16l21-15c-9-13-35-20-49-12-10 10-39 16-46-1-15-23-40-19-62-12-38 30-66-42-106 13-12 14-29 8-41-3q-19-3-38 5-2-2-2 1c-18 10 2 14 8 22 12 11-5 17-11 6 0-12-17-4-19-15q-13 0-12-13-12-6-5-10c3-1 6 3 8 4 16 9 9 5 25-5 51-27 56 8 74 1q13-20 35-26c54-12 36 31 89 4 21-7 49-4 63 14 19 25 30-13 67-3 12 4 26 10 33 20q8 0 12-5l23-13c126-76 133 46 126 141 4 4-1 6-1 7v6c1 1 8-3 9-4q18-12 39-11c9 3 17 12 16 21 6 27-16 49-33 67-13 8 2 12 6 20 41 46 84 106 89 166-4 2-22 12-25 12-6 0-5-8-6-12-8-31-20-64-37-91-4-3-27-57-30-42-4 15-10 9 0 26a287 287 0 0 1 33 105c-8 34 66 72 35 119q-11 2-2 15c16 41 6 94-34 118q-8 1-7 16c-7 40-43 77-87 73-5 1-4 7-8 10-11 23-34 35-56 46q-29 9-59 2-4-3-9-1c-24 21-56 33-89 27q-2 3-5-1-8-1-16-5c-5-1-10-8-15-2-38 22-87 20-125-1-7-2-16-13-22-10-30 16-67 10-97-5-14-6-23-20-36-28-39 19-88-6-112-39l-13-21c-45-4-79-49-81-93-40-20-49-78-30-116 1-6 8-9 6-15-30-24 13-66 33-81q5-52 28-99c8-11 8-25 13-38 14-49-42 55-46 63l-13 34q-7 16-11 33c0 10-11 4-16 1q-8-3-15-9c13-59 47-112 87-157l7-8c24-18-1-11-21-52-21-36 3-69 42-46 4 1 14 11 15 7-4-43-4-159 47-174m-66 193c-3-1-10-3-13-1-1 11 0 17 7 26-1 3 5 10 7 9s4-8 5-10l6-9c3-2 7-3 4-7-2-4-2-1-5-3 0-2-9-7-11-5m734 6-13 6c-8 0 6 12 7 14l5 9c3 4 1 4 3 5 9-9 28-46-2-34m-19 58 7-7c3-6-3-18-7-24s-4-7-6-6l-5 23-6 17c0 3 8 11 9 11 2 1 3-7 7-6s6 8 9 9c1-6-12-13-8-17m17 41q2-13-8-22 2 11 6 20c4 9-1 3 2 2" class="cls-93"/><path d="m102 310 2-15-9 11c11-23 16-16 7 4" style="fill:#5e696a"/><path d="M924 441q-5-13-8-28 6 14 8 28" style="fill:#5b676b"/><path d="m80 329 14-22q-5 13-14 22" style="fill:#596065"/><path d="M916 413q-5-9-8-21z" style="fill:#59676a"/><path d="m43 407-10 30 1-7 6-20c2-6 1-3 3-3" style="fill:#666f73"/><path d="M596 32c-5 5-14 9-20 4 8 3 13-1 20-4" style="fill:#657878"/><path d="M867 315c-4-1-7-15-10-7-1-14 8 3 10 7" style="fill:#687175"/><path d="m43 334-9 15c2-3 5-15 9-15" style="fill:#5c686e"/><path d="M18 381q1-7 5-13c3 1-4 11-5 13" style="fill:#4e6061"/><path d="M681 41c-4 3-7 8-12 5v-1c3 2 9-2 12-4" style="fill:#546069"/><path d="m91 344 5-13c2 4-2 11-5 13" style="fill:#636c75"/><path d="M105 254c6 0-3 9-6 9q5-3 6-9" style="fill:#596369"/><path d="M6 413c-1-3 2-10 4-12z" class="cls-7"/><path d="m76 289 8-10q-2 7-8 10" style="fill:#55676b"/><path d="M61 308c0-4 5-6 7-9z" style="fill:#4f636c"/><path d="M69 348q1-4 5-9l1 1q-2 6-6 8" class="cls-97"/><path d="M382 37c-3 3-10 3-12-1q6 3 12 1" style="fill:#4e5d5f"/><path d="M299 42c-2 3-7 8-9 3q5 1 9-3" style="fill:#5a6065"/><path d="m68 299 7-9q-3 6-7 9" style="fill:#5a6e76"/><path d="M101 250q-5-2-8-8z" class="cls-51"/><path d="M11 398q0-5 4-10 0 6-4 10" class="cls-7"/><path d="m866 275-8-8q6 3 8 8" style="fill:#526263"/><path d="m848 173-10 5q4-4 10-5" style="fill:#5e646d"/><path d="M853 327c-2-2-5-7-1-9z" style="fill:#5b6569"/><path d="M949 409q-3-4-4-11z" style="fill:#717f84"/><path d="m860 255-6 7c-3 0 4-7 6-7" style="fill:#566162"/><path d="M956 433c-1 3-5-18-6-20q5 10 6 20" style="fill:#616e73"/><path d="M908 392v1q-3-4-4-10c2-2 3 8 4 9" style="fill:#6a7b80"/><path d="M905 383h-1l-4-9z" style="fill:#626f72"/><path d="m52 382 4-9q0 6-4 9" class="cls-183"/><path d="M895 364q-3-2-5-8c4 0 4 6 5 8" class="cls-54"/><path d="M26 364q0-5 5-9z" style="fill:#4a5d64"/><path d="M85 357q1-5 4-9-1 5-4 9" style="fill:#4f6167"/><path d="m99 320 2-9q1 5-2 9" style="fill:#7f898e"/><path d="M48 393c-2-1 2-6 3-9z" class="cls-183"/><path d="M84 231q-5-2-5-7z" style="fill:#565b67"/><path d="m48 327-5 7c1-2 2-7 5-7" style="fill:#556163"/><path d="m64 357 4-8c1 4-3 6-4 8" class="cls-97"/><path d="M900 374q-3-2-4-8z" class="cls-54"/><path d="m54 317 5-7q0 5-5 7" style="fill:#5f7276"/><path d="M887 350q-3-2-4-7z" style="fill:#7a8787"/><path d="m336 97 14 13c-2 3-15 11-8 14l14-4 25-7q4-2 8-1 4 0 1 4c43 136 70 123 34-11q18-5 36-3 35-3 69 3l1 2c-12 20-36 91-20 107 27-23 36-65 50-97-6-21 81 27 58-1-2-2-7-4-6-6C649 82 746-1 792 23c39 54 28 168 7 226h-3l-13-15c14-27 30-189-10-193-34-5-157 119-106 101q0 3-4 5 12 8 22 17l16 10q5 5 8 2-3-3 2-3h1q-4 6-1 11 49 39 89 89l18 25 2 68c-2 3-7-1-9-2q-43-19-89-24c-21-2-50 3-13 18 41 12 76 36 114 52q4 72 12 142c-4-25-4-50-8-76-89 9-178 17-243-59-6-8 1-7 9-5 20 4 45-3 61-15 5-5 6-12 11-17q3 2 0 6c60-67-58-160-117-90l-3 1c-42-31-60-86-71-136-12 51-32 108-78 138a76 76 0 0 0-80-28l-2 3c-44 9-78 80-39 111q-3-4-1-7l3 1q6 12 17 19l1 3q25 13 52 9c35-13 0 21-11 28-63 50-148 46-223 33q1-32 6-64c41-13 79-39 119-53 27-13 3-17-14-16-30 2-62 14-90 25-6 4-13 8-11-3l5-50q3-9 9-16v-3q13-19 28-36l3-1q35-41 80-74 2-9-8-7l-1-2v-1c2-6 16-2 12 4l2 1q24-12 45-28v-2q-3 3-1-1l2-2c7 3 3-6 1-9-16-32-64-75-98-88-56-26-34 149-29 174q8 12-4 20c-22 41-29-103-26-113-2-31 8-97 37-112q19 1 36 8 6 0 10 4 18 5 33 16 14 6 24 15 7 3 12 8 11 5 18 14 12 6 22 15z" class="cls-32"/><path d="M140 228c4 7 4 16 8 23 12 2-2-36-1-42l-7-35c1-17 4-38 2-55-8-7 6-36 7-47l3-29c3-6 9-3 9-13q-2-3-2-8c10 6 12-3 18-8s6 0 10 0c15-3 22 10 37 8 1 8 13 4 19 6l3 4 7 2 2 4 7 5q8 1 10-8l3 2c-4 5 4 6 6 8 3 4-1 7 1 10 5 7 12-3 13 9 31 3 6 18 29 14 0-6 2-5-3-10l-8-6c-6-4-9-3-8-11 2-3 10-2 7-10q3 1 5 4c11 1 9-9 34-5h4c1 1 8 9 12 10s5-1 7-1c13 12 25-16 34-21 19-10 40-8 54 7 8 3 26 3 34-1s0-4 5-5c15 1 21-7 38-4q17 3 24 18h-1c-12-16-31-19-49-14-4 3-16 11-21 9q-16 6-32-3l-3 1c-21-17-46-12-60 10-32 31-42-27-88 10q5 1 4 4l51 41 16-4q-3-6-3-13c3 2 3 9 5 11s4 1 2 3l-2 1c-5 5-2 1-8 2-6 2-9 5-16 0h-4s3-4-2-7-3 0-4-1l-5-6c-5-3-8 3-5 7s8 4 11 8 4 8 2 9h-1C331 86 195-12 169 25c-38 64-28 151-10 220l3-1 13-14c-13-48-20-133 0-179 19-59 195 137 103 81h-4l-36-16c-1-4-16-5-12-10q32 0 57 17-27-37-66-60l-3-4-19-10c-35-12-23 153-12 172q8-3 12-12l34-26c-5 1-21 3-15-6s20-6 25-6q14-2 11 10-45 33-82 73l-2-2q0-2 2 2c-42 50-43 49-44 113-8 63-13 130-25 192-3 3-28-2-31-4s1-17 1-21l9-64 1-1c-1 6 3 7 3 12l-4-3-9 75c0 2 26 7 29 4 4-25 11-61 11-86 0-5-3-13 3-18 1-24 3-54 7-79 2-10 2-12 0-22s4-18 2-27l3 2c-7-21 10-29 12-47 0 0 4-3 2-3-11 2-12 2-15-9 0-5 4-7 2-11 4-10 1-4-2-9-1-6 0-17 6-20l-1 4c-6 10-4 15 5 23q0 4-5 9c-3 2 3 9 4 9l13-16q-4-12-5-29M273 44c-10 1 2 7 5 9q-3-3-5-9m54 43c3-1 11 1 11-4s-7-7-7-7c-5 1-6 8-4 11m-85 86c-3-2-9 2-12 2l6 4c3 1 2 7 6 6s2-4 3-5c1-2 6-2 1-8l-2 2q-3 0-2-1m-12 15c-5-2-1 6 0 6s2-6 0-6m-17 17v-3c-7-4-4 6 0 3m-62 55c0-1 1-7-2-6q1 4-2 7zq-1 4-3 4-2 2-2 5c0 3-7 4-1 6s6-7 7-9 3-2 3-2q0-3-4-4" style="fill:#0b0403"/><path d="M781 59c17 50 8 116-5 166l-50-42 20 1v-2c-11-5-23-11-35-9-1-4 6-4 10-4q20 9 41 1-1-9-9-4c-3 0-48-10-45-16q-2-4 2-3 20 9 41 13-17-11-38-12l-1-2c4-9 21 6 34-4l13-6-33 5-2-2v-2l33-6q-14-2-28 0l-2-2q1-5 10-5c14 4 43-10 10-12q-6 2-11-1c-2-7-16-1-21-1q-4-3 2-5c3-14 56-78 64-46" class="cls-15"/><path d="M827 472c-4-19-2-41-5-61-28-9-52-26-77-38-15-7-38-12-51-20-12-9 0-14 9-15 34-3 86 13 116 27l-1-67z" style="fill:#de9a61"/><path d="M727 129c0 3-9 6-10 3l-12 8q2 3-1 1-1 3 1 4l-1 1q6 0 4 4c4 3 39 13 45 14s3-2 4-3c22 13-15 15-23 14-10-2-21-10-26 4l-49-31c22-17 50-25 75-36q0-3 2-1c14-4 46 3 15 15-7 2-17-2-24 3" style="fill:#fbfbf9"/><path d="M637 71q-18 14-34 29c-2 3-8 7-8 2q12-25 13-50c-11-17 43-13 49 5z" style="fill:#fcfbf9"/><path d="M781 59c-3-1-3-8-6-9-23 6-47 34-57 56 0 1-6 2-1 3l12-2c4 1 8-2 7 4l-3 1q3-2 0-3c-20-1-41 10-58 17 1-14 104-104 106-67" style="fill:#e49b98"/><path d="M637 72q9-10 20-15c-8-13-30-18-44-14-9 2-4 5-3 8 1 18-9 36-14 52 4 1 16-15 21-16-3 3-17 18-19 18l-17-5c4-12 11-27 10-40s1-4-2-3-11 36-14 40l-64-9-2-2c2-5 9-37 1-37l-6 31c-3 11-1 7-3 7h-55l-7-33c-4 10-1 22 0 32l-1 2-50 7q0-3 2-1c3-5 33-7 40-8l4 1 2-35c12-6 11 27 12 32 12 0 33-3 42 1q5-3 11-1 0-16 5-31c-3-7 4-12 8-6 7 6-1 31-1 38q30 3 59 9l14-37c-6 0-16 0-17-6v-1c24 12 35-14 63-9 5 1 26 9 26 15 0 2-17 14-21 15" style="fill:#dcd2c2"/><path d="m563 43 6 7v1c-15-1-11-28-56-20q4 9 1 16c-11-3-5 2-6 7-4 9-3 21-6 31h-12l-2-3 2-41c-5 3-34 3-30-6 39 18 64-36 103 8" class="cls-213"/><path d="M852 371c5-1 3 10 4 12-1 4 6 8 8 4q9 27 12 55c1 7-1 15 2 22-7 4-5-24-7-29q-12-9-10 1c1 9 3 31 0 39z" style="fill:#db9b66"/><path d="M861 475c1-11-3-37-2-47 2-1 13 4 14 6 2 3 1 20 2 25s5 5 6 10l-3-4c-6 5-14-1-16 5l8 91c-7 6-23 6-32 6q-2 0-1-2c7 2 26 0 32-4 0-28-7-57-8-86" style="fill:#f2c291"/><path d="m378 67-5-8q1 20 8 38l-18 6-50-43c7-3 28 21 34 24-2-3-11-24-1-19l27 28 3 3c-2-5-12-37-4-41s9 9 6 12" style="fill:#e2dcca"/><path d="M129 228c2-2 9-14 9-6l10 36-16 18q-5-4-7-8c-1-6 6-8 6-11-2-12-13-8-3-25l2 2c-4 9-3 11 3 18 9-8 6-16 2-26q-3 6-7 6z" style="fill:#d0c3b4"/><path d="M827 259c-4 4 8 11 8 17-3-1-6-8-9-9s-5 7-8 6-8-10-8-11l6-17 5-23c2-1 6 5 6 6 4 6 10 18 7 24s-5 5-7 7" style="fill:#dbccbe"/><path d="M580 114c-6 0-13-4-19-1q-17-2-32-8-52-7-105 0c-5 5-30 10-35 7l-10 1c65-18 136-17 201 1" style="fill:#6e4d32"/><path d="m88 398-9 66q-3-5-1-14-1 6-5 5c2-7 10-67 16-65 1 1-1 7-1 8" style="fill:#a4816a"/><path d="M864 387c3 8-8 2-9 1-3-4-1-13-3-17l-1-15c2-2 12 29 13 31" style="fill:#d5ad86"/><path d="M844 300q-3 1-2-2-5-9-6-20 10 9 8 22" style="fill:#9f9c9d"/><path d="M378 67c4-6 8 17 9 19l3 8-2 1c-4-3-8-22-10-28" class="cls-213"/><path d="m351 111-8 5q2-4 6-6l-13-13c5 4 13 8 15 14" style="fill:#534b43"/><path d="M88 398v-7h-1l-1 3c0-15 9-9 2 4" style="fill:#322b2a"/><path d="M379 113h2q-12 5-25 7z" class="cls-210"/><path d="m106 220 6 7 6-8-5 10c-2 1-8-6-7-9" style="fill:#57666e"/><path d="M733 112h1l-20 8z" class="cls-15"/><path d="M124 210q4-4 1-9 1-1 3 2c3 4-1 5-4 7" style="fill:#4f5f65"/><path d="M859 216q3-7 2-15c4 4 0 12-2 15" style="fill:#859295"/><path d="M833 207c-2 4 4 6 4 10-2-1-10-10-4-10" style="fill:#637376"/><path d="M845 230h1c2 4 4 1 6-1q-1 4-4 6z" style="fill:#595f5d"/><path d="M112 195c2-2 11 3 11 5z" style="fill:#626f77"/><path d="m860 200-14 1q8-3 14-1" style="fill:#a3a3a6"/><path d="M846 230h-1l-5-9z" style="fill:#545b67"/><path d="M627 298c28 16 34 55 17 81-42 66-135 6-108-62l2 2 13-19h4c19-17 51-15 72-2" style="fill:#411b0e"/><path d="M545 297c51-67 164 0 133 77-3 6-10 15-17 15 38-66-47-140-105-89h-2c-6 6-13 17-16 25q0 5-3 8c-2-4 4-38 10-36" class="cls-186"/><path d="M400 306c20 33 4 87-35 97 4 13-21 29-29 36v-1q3-4 7-6 11-9 17-20c5-7-14 0-17 0-17 1-36-1-48-11 2-6 22 10 41 7-19-3-37-15-46-32s-4-9-1-11l3 2a58 58 0 0 0 111-15l1-32q-4 0-1-4-3-4-3-10" style="fill:#f5e6cd"/><path d="M517 267c5 6 19 22 25 26s5-2 3 4c-71 128 157 151 96 13 17 18 16 50 3 70-57 72-144-6-102-82-5-8-26-23-25-31" style="fill:#f2dac3"/><path d="M488 211q-9-18-12-40l-4 2c-7 30-18 68-40 91q31-48 41-105 3-1 3 3l4 20q6 14 8 29" style="fill:#f5dec1"/><path d="M641 296a74 74 0 0 0-66-7c18-3 38-2 52 9-20-10-44-13-64-1s-9 8-9 3c22-21 63-23 87-4" style="fill:#5d4f49"/><path d="M593 412h-10c-1 5 5 7 7 9 10 14 23 21 37 33-15-5-40-27-47-41-1-1-6-1-2-3s12 0 15 2" style="fill:#f0dcc3"/><path d="M488 211c8 18 16 42 29 56v2q-8-7-12-18c-11-17-14-25-20-45z" style="fill:#f7e4c7"/><path d="M432 264q-13 21-33 35l-1 2 2 5-3-3q-4 1-1-2v-2q0-3-3-6c8 2 1 7 15-3l19-22c7-8 0-3 5-4" style="fill:#f0dbbe"/><path d="m137 294-9 17-4 54c33-12 79-32 114-29 42 8-19 28-31 33-29 12-56 32-87 40-6 20-4 43-8 63h-1q9-81 16-163 4-8 10-15" style="fill:#de9a60"/><path d="M567 112c-8 0-4 0-4 4-7 25-23 52-32 77-50 77-19-72-2-88z" style="fill:#df9960"/><path d="M424 105c48 143-5 139-35 7z" class="cls-210"/><path d="M396 301q8 14 9 29c-6 5-13-19-15-22q-5-4-5-8c-5-2-13-6-16-11-55-21-115 29-94 86l-1 3 5 11c-80-56 56-180 117-88" class="cls-186"/><path d="m223 108 4 2c24 10 50 18 71 35v2q-22 16-45 28l-2-1c-2-6-7-4-12-4-10 4-45 11-42-8q3-9 8 0 23-5 44-12c-1 0 4-3 4-6 11-1-5-11-8-13q-17-6-36-5 0-3-4-2c-25-14 4-17 17-18z" style="fill:#fcfafa"/><path d="M369 289q4 2 1 4-20-9-40-4l-1 3c-31 8-46 40-39 70l-1 3c6 27 34 43 60 41-1 6-12 2-16 4q-12 0-23-3c-11-3-10-6-15-6-67-46 5-147 74-112" style="fill:#fafbf8"/><path d="M559 204c30-4 23 28 6 40-14 12-41 16-37-10s17-28 31-30" style="fill:#de975f"/><path d="M378 203c23-4 54 41 24 50-13 0-27-10-34-20-7-11-6-29 10-30" style="fill:#dd975f"/><path d="M298 145c1 1 8 1 5 3s-3 0-4 1l-39 25c-20 14-7 1-7 6q-2-1-2-6l12-5c9-10 26-13 35-24" class="cls-86"/><path d="M396 299v2c-18-27-49-35-80-30 30-9 63 3 80 28" class="cls-165"/><path d="M709 176c0 1 0 5-2 4-6-7-16-9-22-16l17 9c5 3 4 6 7 3" style="fill:#f2dfc9"/><path d="M498 102h-38l6-1h27c9 0 4 0 5 1" class="cls-210"/><path d="M297 143v1q-10-5-19-12c7 1 13 9 19 11" class="cls-86"/><path d="M460 35c8 9 23 6 33 3-4 15 0 32-3 47q-21-1-43 1c-1-1-3-28-6-32-6-4-4 7-5 10l-1 22c-13 4-31 4-45 8-7-6-6-20-12-27q0-6-4-11c-8 8 2 32 5 41-8 2-5 1-7-2l-27-29-2 1q1 12 10 23c-8 0-29-27-40-30-3-2-9-3-5-7 7-7 28-13 38-12 16 2 20 17 39 11 12-4 15-18 27-24 20-9 31-3 48 7" style="fill:#f9fdf7"/><path d="M214 59c23 13 48 34 65 54 1 2 11 13 6 12-18-9-39-18-59-18 0 5 8 4 10 7-4-1-11-2-13-6-5-3 3-6 7-5l10 2q-9-21-27-38-5-4-5-10 3-1 6 2" style="fill:#df9e96"/><path d="M168 254c-9-3-1-7 1-10s0-4 0-4 6-1 8-5-1-3 0-4c0-3 3-7 1-9l-4-2c2-6 8 6 10 5q1-3 3-1c4-2 4-4 9-5v-6c0-2 7-7 9-4 4 4-1 4-2 6l-8 7-9 12-7 3c-3 2 1 4 0 5l-6 6c-2 2-6 1-5 6" class="cls-93"/><path d="m214 59-6-2-2 1c-9-4-19-15-23 1-15 51-11 108 1 159 2-1 8-11 10-6-2 3-9 12-12 10-13-54-21-124 4-175 3-2 25 8 28 12" style="fill:#7f6867"/><path d="M327 87c-2-3-1-11 4-11s7 6 7 7c0 5-8 3-11 4M151 260l-4 1q3-3 2-7c3-1 2 5 2 6q4 1 4 4c0 3-2 0-3 2-2 2-1 11-7 9s1-6 1-6l2-5c1-2 2 0 3-4M273 44q2 6 5 9c-3-2-15-8-5-9" class="cls-93"/><path d="M727 129c5 0 35-3 34 3-1 2-33 3-37 7 0 3-8 6-10 3-22 10-4-11 13-13" style="fill:#0c0a0c"/><path d="M724 139c5-1 38-6 39-5 1 4-25 13-28 14-6 1-16-6-23-2q1 4-2 1l-2 3-1-2-3-2 3-1q8-4 17-6" style="fill:#f7f6f4"/><path d="M712 146a71 71 0 0 1 43 14q1 2-1 3c-7-4-47-9-44-16z" style="fill:#1a1918"/><path d="m717 132-12 8c4-6 6-5 12-8m-13 9c-1 7 6 1 10 1q-4 4-10 4-2-2 0-5" class="cls-15"/><path d="M569 51c9 6 17 3 25 1 3 2-4 3-4 3-4 3-8 21-10 26l-6 14-2 1q-30-8-61-9l4-29-3-28q17-5 34 1c17 6 13 15 23 20" style="fill:#fbfcfe"/><path d="m436 64 1 23h-3c0-6-2-7 1-12z" class="cls-213"/><path d="m128 232 9-11c0 7 4 15 4 21s-5 12-7 12-7-8-9-9z" style="fill:#f2f2f1"/><path d="M824 225c6 12 18 26 1 33l-8-13c3-4 2-20 7-20" style="fill:#f7f9f8"/><path d="M631 369c-3-1-10 5-12 7s1 4 1 4-3 0-3 3 2 2 2 4c-5-2-4 2-6 3-6 2-21 4-27 3s-25-8-26-14c4-16 25-20 38-13 17-8 8-8 17-18 2 0 4 13 9 16s8-1 7 5" style="fill:#5c301d"/><path d="M591 320c-1 22-34 22-34 0s33-22 34 0" style="fill:#f7f9fa"/><path d="M385 300c13 9 10 23 19 29v-9c21 78-81 121-115 45-17-60 48-99 96-65m15 6 3 10q-4-6-6-13z" class="cls-165"/><path d="M330 289c16-8 45 7 39 0 9 4 9 4 16 11q-2 2-4 0a65 65 0 0 0-51-11" style="fill:#61534a"/><path d="M208 57c11 16 27 27 33 46 1 2 6 4 0 4-4 1-17-6-18 1-6 0-41 2-18 14l5 1q0 2 2 2h13q12 2 20 6c2 1-2 2-2 2q-18-6-37-4l24 4q6 1 4 4c-3 3-27-2-31-3 21 17 34 3 50 11 0 8-11 7-16 8v-2c31-9-20-2-27 6l23-5 4 1c-2 4-26 8-30 9-6 2-3-4-7-3-10 19 30 13 39 11v1c-3 1-28 6-23 11 3 2 14-4 18 0q-26 18-49 38c-16-37-22-135 3-172 5-1 16 7 20 9" style="fill:#f6bcb6"/><path d="m234 137 19 3-8-5v-4q8 3 12 10c4 7-1 4-4 4l-15-1c-14 1-15 4-28-3-2-1-13-7-11-10z" style="fill:#f5f4f0"/><path d="M242 173q-1 1 2 1c3 0 0-3 2-2 5 6 0 6-1 8s0 4-3 5-5-4-6-6-5-2-6-4q6-3 12-3m-12 16c2 0 3 6 0 6s-5-8 0-6m-17 17c-4 3-7-7 0-3s0 3 0 3" class="cls-93"/><path d="M628 368c-15 2-8 26-18 5l-9-6c8-4 9-9 14-16q2 8 8 13c6 5 7 2 5 4" style="fill:#e9e2dc"/><path d="M377 369v-3q-9-2-10-12-3 8-11 12 8 3 11 12c2-3 5-13 10-9-8 7 14 12-8 13-6 18-58 10-53-12l10-6c7-2 19-3 25 0 12-4 10-8 14-16 4-1 5 9 8 12s8 3 9 5c1 4-4 4-5 4" style="fill:#633621"/><path d="M343 320c-1 22-34 22-34 0 0-23 34-23 34 0" style="fill:#fbfbfa"/><path d="M245 132c2 1 14 9 11 11l-22-6c-4-4-30-5-31-7-3-3 7-4 10-4 9 0 23 2 32 6" style="fill:#161413"/><path d="m237 153-32 8c1-16 77-21 32-8" style="fill:#13110e"/><path d="M377 369c-8 2-8 14-10 12l-7-10c-13-6-5-5 2-12l5-9 4 10c3 4 13 4 6 9" style="fill:#faf5f1"/></svg>